# xmcd
#
# Track frame offsets:
# 150
# 13634
# 29194
# 40720
# 53392
# 66257
# 78594
# 94641
# 108428
# 125384
# 139389
# 157866
# 169817
# 185493
# 200959
# 213732
# 233146
# 246156
# 258039
# 271508
# 288063
# 305449
# 320916
#
# Disc length: 4449 seconds
#
#
# Revision: 0
# Processed by: cddbd v1.5.2PL0 Copyright (c) Steve Scherf et al.
# Submitted via: FreeRIP 2.945 
#
DISCID=47115f17
DTITLE=SO BATIDAO - SO BATIDAO
DYEAR=2006
DGENRE=Country
TTITLE0=O CALDEIRAO
TTITLE1=COM TODOS MENOS COMIGO
TTITLE2=CERVEJARIA
TTITLE3=A VIOLA TINIU
TTITLE4=BALANCOU,SACUDIU
TTITLE5=MULHER BOA
TTITLE6=TOCO DE SAIA
TTITLE7=ELA E SHOW
TTITLE8=FERA MANSA
TTITLE9=100 POR CENTO BRASIL
TTITLE10=BEBEDEIRA
TTITLE11=QUEBRADEIRA
TTITLE12=QUE PESCAR QUE NADA
TTITLE13=EU ME ENGANEI
TTITLE14=ELA FEZ MINHA CABECA
TTITLE15=APAIXONADO POR VOCE
TTITLE16=TA EMBOLADO O MEIO DE CAMPO
TTITLE17=PELEJANDO
TTITLE18=SO TO COMENDO
TTITLE19=RABO DE SAIA
TTITLE20=VOU BEBER VENENO
TTITLE21=KIPROCO
TTITLE22=CLUBE DO BATIDAO
EXTD=
EXTT0=
EXTT1=
EXTT2=
EXTT3=
EXTT4=
EXTT5=
EXTT6=
EXTT7=
EXTT8=
EXTT9=
EXTT10=
EXTT11=
EXTT12=
EXTT13=
EXTT14=
EXTT15=
EXTT16=
EXTT17=
EXTT18=
EXTT19=
EXTT20=
EXTT21=
EXTT22=
PLAYORDER=
